# xmcd
#
# Track frame offsets: 
#        150
#        14990
#        26328
#        40820
#        55999
#        70065
#        79357
#        90724
#        104698
#        118127
#        128014
#        150127
#
# Disc length: 2189 seconds
#
# Revision: 1
# Processed by: cddbd v1.5.2PL0 Copyright (c) Steve Scherf et al.
# Submitted via: ExactAudioCopyFreeDBPlugin 1.0
#
DISCID=9b088b0c
DTITLE=Ila Auto - Ila Auto
DYEAR=2009
DGENRE=Bluegrass
TTITLE0=Creedence På Kassett
TTITLE1=Regn Og Snø
TTITLE2=En Som Blir Igjen
TTITLE3=Alle Dør, Men Ikke Alle Lever
TTITLE4=Grønland
TTITLE5=Slakt
TTITLE6=Fem Mil Unna
TTITLE7=Fagerborg
TTITLE8=Ikke Mere Tid
TTITLE9=Få Meg Hjem
TTITLE10=Nå Kommer Natta
TTITLE11=Ingenting Igjen
EXTD=
EXTT0=
EXTT1=
EXTT2=
EXTT3=
EXTT4=
EXTT5=
EXTT6=
EXTT7=
EXTT8=
EXTT9=
EXTT10=
EXTT11=
PLAYORDER=
